<svg xmlns="http://www.w3.org/2000/svg" viewBox="0 0 58 57" width="58" height="57">
	<style>
		tspan { white-space:pre }
		.shp0 { fill: #5474fd } 
	</style>
	<g id="How It Works">
		<g id="Search">
			<path id="" class="shp0" d="M57.27 53.81L54.31 56.77L38 40.45C37.06 41.3 36.03 42.05 34.91 42.7C33.78 43.36 32.61 43.92 31.39 44.39C30.17 44.86 28.88 45.21 27.52 45.45C26.16 45.68 24.83 45.8 23.52 45.8C20.33 45.8 17.35 45.19 14.59 43.97C11.82 42.75 9.4 41.11 7.34 39.05C5.28 36.99 3.66 34.57 2.49 31.8C1.32 29.04 0.73 26.11 0.73 23.02C0.73 19.83 1.32 16.85 2.49 14.09C3.66 11.32 5.28 8.91 7.34 6.84C9.4 4.78 11.82 3.17 14.59 1.99C17.35 0.82 20.33 0.23 23.52 0.23C26.61 0.23 29.54 0.82 32.3 1.99C35.07 3.17 37.48 4.78 39.55 6.84C41.61 8.91 43.25 11.32 44.47 14.09C45.69 16.85 46.3 19.83 46.3 23.02C46.3 24.33 46.18 25.67 45.95 27.02C45.71 28.38 45.36 29.67 44.89 30.89C44.42 32.11 43.86 33.28 43.2 34.41C42.55 35.53 41.8 36.56 40.95 37.5L57.27 53.81L57.27 53.81ZM3.12 23.02C3.12 25.83 3.64 28.45 4.67 30.89C5.7 33.33 7.15 35.48 9.03 37.36C10.91 39.24 13.09 40.71 15.57 41.79C18.05 42.87 20.7 43.41 23.52 43.41C26.33 43.41 28.95 42.87 31.39 41.79C33.83 40.71 35.98 39.24 37.86 37.36C39.73 35.48 41.21 33.33 42.29 30.89C43.37 28.45 43.91 25.83 43.91 23.02C43.91 20.2 43.37 17.56 42.29 15.07C41.21 12.59 39.73 10.41 37.86 8.53C35.98 6.66 33.83 5.2 31.39 4.17C28.95 3.14 26.33 2.62 23.52 2.62C20.7 2.62 18.05 3.14 15.57 4.17C13.09 5.2 10.91 6.66 9.03 8.53C7.15 10.41 5.7 12.59 4.67 15.07C3.64 17.56 3.12 20.2 3.12 23.02L3.12 23.02Z" />
		</g>
	</g>
</svg>